<?xml version="1.0" encoding="UTF-8"?>
<!-- Created with Inkscape (http://www.inkscape.org/) -->
<svg width="580" height="100" version="1.1" viewBox="0 0 153.45832 26.458333" xmlns="http://www.w3.org/2000/svg" xmlns:cc="http://creativecommons.org/ns#" xmlns:dc="http://purl.org/dc/elements/1.1/" xmlns:rdf="http://www.w3.org/1999/02/22-rdf-syntax-ns#">
 <title>ArchUnit Logo</title>
 <defs>
  <clipPath id="clipPath5807-4-4">
   <path d="m141.19 173.65a3.0037 3.0037 0 0 1 1.5566 -2.6321 3.0037 3.0037 0 0 1 3.0565 0.0961l-1.6094 2.5361z" fill="#a6e9b9" fill-opacity=".98598"/>
  </clipPath>
  <clipPath id="clipPath5618-7-9-2">
   <path d="m88.682 67.225a3.05 3.05 0 0 1 1.6064 -2.6867 3.05 3.05 0 0 1 3.127 0.14337l-1.6834 2.5434z" fill="none"/>
  </clipPath>
 </defs>
 <metadata>
  <rdf:RDF>
   <cc:Work rdf:about="">
    <dc:format>image/svg+xml</dc:format>
    <dc:type rdf:resource="http://purl.org/dc/dcmitype/StillImage"/>
    <dc:title>ArchUnit Logo</dc:title>
    <cc:license rdf:resource="http://creativecommons.org/licenses/by/4.0/"/>
    <dc:date>2017-07-01</dc:date>
    <dc:creator>
     <cc:Agent>
      <dc:title>Philip Schmitt</dc:title>
     </cc:Agent>
    </dc:creator>
   </cc:Work>
   <cc:License rdf:about="http://creativecommons.org/licenses/by/4.0/">
    <cc:permits rdf:resource="http://creativecommons.org/ns#Reproduction"/>
    <cc:permits rdf:resource="http://creativecommons.org/ns#Distribution"/>
    <cc:requires rdf:resource="http://creativecommons.org/ns#Notice"/>
    <cc:requires rdf:resource="http://creativecommons.org/ns#Attribution"/>
    <cc:permits rdf:resource="http://creativecommons.org/ns#DerivativeWorks"/>
   </cc:License>
  </rdf:RDF>
 </metadata>
 <g transform="translate(-.91476 -269.89)">
  <g transform="matrix(7.9893 0 0 7.9893 -706.31 -322.78)">
   <g transform="matrix(1.057 0 0 1.057 -60.718 -106.12)" clip-path="url(#clipPath5807-4-4)" stroke-width=".94604">
    <circle cx="144.19" cy="173.65" r="3.0037" fill="#a6cee9" fill-opacity=".98598"/>
    <circle cx="144.19" cy="173.65" r="2.0024" fill="#65a2d0"/>
    <circle cx="144.19" cy="173.65" r="1.0012" fill="#0563a5"/>
   </g>
   <g transform="matrix(1.041 0 0 1.041 -3.7966 7.4452)" stroke-width=".96063">
    <g transform="translate(.0017974 .0031773)" clip-path="url(#clipPath5618-7-9-2)" stroke-width=".96063">
     <g stroke-width=".96063">
      <path d="m88.682 67.225a3.05 3.05 0 0 1 1.6064 -2.6867 3.05 3.05 0 0 1 3.127 0.14337l-1.6834 2.5434z" fill="none"/>
     </g>
    </g>
   </g>
   <g stroke-width=".28557px" aria-label="ArchUnit">
    <g fill="#0563a5">
     <path d="m95.093 77.423-0.50448-2.6655h-0.6099l-1.6979 2.6655h0.71531l0.32001-0.53084h1.0278l0.09036 0.53084zm-0.81319-1.0353h-0.69648l0.55719-0.94496z"/>
     <path d="m96.162 75.823c0.0113-0.07153 0.03012-0.22589 0.03388-0.27483h-0.57225c-0.0113 0.12047-0.03765 0.29365-0.05647 0.38777l-0.2673 1.4871h0.60236l0.16942-0.96378c0.02635-0.15436 0.14683-0.42918 0.49695-0.42918 0.04518 0 0.09788 0.0038 0.15059 0.01882l0.09788-0.5346c-0.03012-0.0075-0.08282-0.01506-0.128-0.01506-0.23342 0-0.39907 0.13553-0.51954 0.32377z"/>
     <path d="m98.572 75.782c-0.1393-0.19577-0.41036-0.28989-0.69272-0.28989-0.69272 0-1.152 0.54966-1.152 1.1596 0 0.49695 0.36518 0.82449 0.91108 0.82449 0.32001 0 0.56095-0.11294 0.75672-0.28612l-0.28612-0.38401c-0.09035 0.09412-0.21083 0.16942-0.39154 0.16942-0.28236 0-0.4066-0.192-0.4066-0.40283 0-0.31624 0.22965-0.59107 0.55342-0.59107 0.14683 0 0.27483 0.07906 0.32754 0.16189z"/>
     <path d="m100.41 77.423 0.2033-1.152c0.0151-0.064 0.0188-0.13553 0.0188-0.2033 0-0.30495-0.18071-0.56848-0.5986-0.56848-0.25224 0-0.45178 0.1393-0.55719 0.29365h-0.0075l0.21459-1.216h-0.60613l-0.50072 2.8462h0.60236l0.18071-1.009c0.03765-0.22965 0.17694-0.41789 0.3953-0.41789 0.18447 0 0.24848 0.11294 0.24848 0.25224 0 0.04518-0.0075 0.10541-0.01882 0.15812l-0.17694 1.0165z"/>
    </g>
    <g fill="#65a2d0">
     <path d="m102.16 77.495c0.73885 0 1.0866-0.5334 1.0866-1.1063v-1.7622h-0.39116v1.7385c0 0.38326-0.17385 0.77837-0.69539 0.77837-0.52155 0-0.6954-0.39511-0.6954-0.77837v-1.7385h-0.39116v1.7622c0 0.57291 0.3477 1.1063 1.0866 1.1063z"/>
     <path d="m103.7 75.551c0.0118 0.12248 0.0158 0.30424 0.0158 0.40301v1.4698h0.37141v-0.99568c0-0.3714 0.20941-0.61637 0.50179-0.61637 0.34374 0 0.42672 0.26868 0.42672 0.57291v1.0391h0.3714v-1.1616c0-0.41882-0.21731-0.76256-0.69934-0.76256-0.26868 0-0.5176 0.15804-0.60848 0.35955h-0.0118c0-0.07902-8e-3 -0.21336-0.0158-0.30819z"/>
     <path d="m106.22 75.551h-0.37141v1.8728h0.37141zm0.0632-0.67564c0-0.13829-0.11459-0.24102-0.24892-0.24102-0.13434 0-0.24497 0.10668-0.24497 0.24102 0 0.13039 0.11063 0.23707 0.24497 0.23707 0.13433 0 0.24892-0.10273 0.24892-0.23707z"/>
     <path d="m107.61 75.551h-0.49784v-0.53735h-0.36746v0.53735h-0.35955v0.30424h0.35955v1.0154c0 0.38721 0.19361 0.58476 0.54526 0.58476 0.11458 0 0.22916-0.01976 0.31608-0.05137l-0.0118-0.30424c-0.0632 0.03161-0.15014 0.04741-0.21731 0.04741-0.1857 0-0.26472-0.09088-0.26472-0.31609v-0.97592h0.49784z"/>
    </g>
   </g>
  </g>
 </g>
</svg>
